<svg viewBox="0 0 200 200" xmlns="http://www.w3.org/2000/svg" id="Being-Creative-1--Streamline-Brooklyn.svg"><desc>Being Creative 1 Streamline Illustration: https://streamlinehq.com</desc><path d="M94.289 44.108c-1.387 1.916 2.339 6.4 5.858 6.413 -0.465 -1.214 -4.347 -8.494 -5.858 -6.413Z" fill="#64c9cf" stroke-width="1"></path><path d="M106.817 36.494c-2.735 0.252 -1.347 7.073 0.562 9.217 0.921 -1.873 2.138 -9.465 -0.562 -9.217Z" fill="#64c9cf" stroke-width="1"></path><path d="M118.22 43.143c-2.08 -0.568 -4.553 3.158 -5.268 4.914 4.741 -0.145 6.928 -4.457 5.268 -4.914Z" fill="#64c9cf" stroke-width="1"></path><path d="M128.062 32.157c-6.856 -13.667 -31.381 -18.793 -41.352 -0.313 -8.748 16.215 2.69 31.871 19.565 48.049 -2.72 3.207 -3.858 5.782 -3.2 6.177s7.19 0.833 8.2 0 -1.708 -4.3 -3.013 -6.177c24.929 -22.41 25.673 -36.028 19.8 -47.736Zm-18.9 41.289c-0.01 0.485 -0.837 0.485 -0.847 0a84.507 84.507 0 0 1 2.776 -24.125 8.384 8.384 0 0 1 -3.47 -1.507 9.329 9.329 0 0 1 -5.719 3.734 165.347 165.347 0 0 1 4.671 22.127 0.465 0.465 0 0 1 -0.916 0.125 139.449 139.449 0 0 0 -5.108 -22.1c-7.635 -0.3 -9.158 -7.248 -6.941 -8.884 3.142 -2.318 7.135 5.456 7.905 7.558a8.719 8.719 0 0 0 5.115 -3.428c-2.776 -2.776 -4.373 -11.436 -0.041 -11.889 4.767 -0.5 3.269 8.884 1.8 11.583a7.119 7.119 0 0 0 3.172 1.319c0.965 -2.575 3.694 -6.721 6.823 -6.156 3.777 0.682 1.006 7.794 -5.927 7.635 -1.955 6.587 -3.155 17.271 -3.292 24.008Z" fill="#64c9cf" stroke-width="1"></path><path d="M82.879 83.482c-14.955 -6.235 -31.545 5.552 -38.117 18.739 1.777 2.325 3.748 4.449 8.481 8.03 -0.562 -3.588 1.777 -3.782 3.123 -2.082 0.618 -3.907 0.5 -10.493 8.26 -8.919 3.468 0.7 6.214 2.723 5.712 6.247a43.833 43.833 0 0 0 -0.1 11.23c26.008 4.296 30.452 -25.819 12.641 -33.245ZM82.935 101c-1.73 0.636 -4.519 0.056 -6.247 -0.694a7.454 7.454 0 0 0 -1 5.393c1.922 0.292 6.063 1.124 5.927 3.547 -0.149 2.637 -5.393 2.367 -6.816 -2.6a20.116 20.116 0 0 0 -3.151 -0.208c-0.6 0 -0.569 -0.865 0 -0.909a18.1 18.1 0 0 1 2.908 0 8.6 8.6 0 0 1 1.132 -5.747 7.9 7.9 0 0 1 -3.748 -4.428c-4.81 2.124 -14.471 3.921 -19.586 3.921 -0.458 0 -0.571 -0.621 -0.1 -0.694 6.413 -1.006 13.311 -1.52 19.433 -4.234 -0.569 -4.115 4.011 -7.495 5.747 -5.038 1.554 2.2 -2.929 4.754 -4.5 5.552A6.347 6.347 0 0 0 76.3 98.9c2.235 -2.574 6.565 -3.189 7.926 -1.131A2.191 2.191 0 0 1 82.935 101Z" fill="#64c9cf" stroke-width="1"></path><path d="M78.618 109.564c1.888 0.762 2.394 -0.632 1.138 -1.43a11.35 11.35 0 0 0 -3.693 -1.249 4.578 4.578 0 0 0 2.555 2.679Z" fill="#64c9cf" stroke-width="1"></path><path d="M76.6 89.985c-0.638 -0.792 -3.706 0.215 -3.72 3.866 0.747 -0.542 4.628 -2.736 3.72 -3.866Z" fill="#64c9cf" stroke-width="1"></path><path d="M83.011 98.258c-1.4 -1.067 -4.164 -0.09 -5.552 1.166 1.179 0.4 4.4 1.048 5.476 0.187a0.812 0.812 0 0 0 0.076 -1.353Z" fill="#64c9cf" stroke-width="1"></path><path d="M103.777 117.643c0.9 -1.386 3.54 -1.631 4.692 -1.874a6.832 6.832 0 0 0 3.185 4.359c0.466 0.267 0.862 -0.439 0.486 -0.771 -3.036 -2.677 -2.434 -4.609 -2.984 -5.615 -0.194 -0.354 -1.041 -0.3 -0.875 1.111 -1.707 -0.444 -5.138 0.638 -5.635 2.332 -0.216 0.735 0.564 1.333 1.131 0.458Z" fill="#000000" stroke-width="1"></path><path d="M103.937 114.686c1.741 -1.542 3.31 -0.826 3.983 -1.388a0.388 0.388 0 0 0 0.129 -0.534c-0.449 -0.734 -3.491 -0.659 -4.925 1.034 -0.633 0.748 -0.785 2.302 0.813 0.888Z" fill="#000000" stroke-width="1"></path><path d="M112.577 112.479c0.7 0.353 1.807 3.393 2.138 4.164 3.949 9.206 10.331 17.28 14.818 27.8a0.459 0.459 0 0 0 0.868 -0.278c-1.928 -8.376 -10.363 -18.045 -14.353 -27.859 -3.263 -8.023 -1.216 -3.051 -11.209 -8.051 -0.547 -0.273 -0.963 0.608 -0.479 0.944a23.155 23.155 0 0 0 8.217 3.28Z" fill="#000000" stroke-width="1"></path><path d="M104.346 120.377c0.233 -1.2 3.262 -1.714 4.234 -2.255a0.472 0.472 0 0 0 0.14 -0.653c-0.541 -0.838 -4.387 0.459 -5.325 1.8 -0.977 1.392 0.628 2.773 0.951 1.108Z" fill="#000000" stroke-width="1"></path><path d="M194.954 146.953a19.344 19.344 0 0 0 -2.193 -6.712c-0.264 -0.389 -0.847 -0.062 -0.805 0.368 0.089 0.916 1.488 3.838 1.735 6.524a4.716 4.716 0 0 1 -2.415 5.025c-3.793 2.5 -7.743 3.829 -11.737 5.934 -0.541 0.285 -0.25 0.942 0.292 0.764 2.926 -0.967 9.589 -3.835 12.132 -5.6a6.267 6.267 0 0 0 2.991 -6.303Z" fill="#000000" stroke-width="1"></path><path d="M131.011 159.98a5.719 5.719 0 0 1 -7.072 0.749c-7.118 -4.427 -7.329 -21.965 -12.6 -33.737 -0.646 -1.444 -1.047 -1.779 -2.124 -2.131 -1.3 -0.426 -3.151 -0.694 -3.852 -1.617s1.049 -2.129 2.818 -2.721c1.1 -0.367 0.514 -1.1 -0.472 -0.992a5.854 5.854 0 0 0 -3.706 2.582 2.021 2.021 0 0 0 0.784 2.408 15.055 15.055 0 0 0 4.581 1.652c2.117 3.192 5.024 15.177 6.121 19.482 1.4 5.474 2.977 13.805 8.405 16.483 2.547 1.257 6.312 1.1 7.961 -1.533 0.334 -0.529 -0.431 -1.032 -0.844 -0.625Z" fill="#000000" stroke-width="1"></path><path d="M147.974 89.957a3.734 3.734 0 0 0 -1.964 1.388c-0.361 0.576 0 1.172 0.576 0.694a4.6 4.6 0 0 1 1.749 -0.909c1.337 -0.357 0.588 -1.45 -0.361 -1.173Z" fill="#000000" stroke-width="1"></path><path d="M152.992 95.051a2.242 2.242 0 0 1 1.423 -0.041c1.049 0.3 0.7 -0.468 0.416 -0.736a1.55 1.55 0 0 0 -2.255 0.139c-0.364 0.442 -0.182 0.866 0.416 0.638Z" fill="#000000" stroke-width="1"></path><path d="M150.452 95.024c-0.467 0.47 -1.677 2.567 -1.451 3.158 0.289 0.755 2.027 0.8 2.728 0.562s0.694 -0.569 0.229 -0.694c-0.181 -0.049 -1.922 0 -1.985 -0.306 -0.1 -0.465 0.959 -1.749 1.027 -2.484 0.019 -0.209 -0.106 -0.682 -0.548 -0.236Z" fill="#000000" stroke-width="1"></path><path d="M151.09 100.729c-0.3 0 -0.41 0.545 -0.083 0.618 3.262 0.727 5.122 -1.02 5.309 -2.284 0.087 -0.582 -0.381 -1.305 -0.909 -0.208s-1.693 2.027 -4.317 1.874Z" fill="#000000" stroke-width="1"></path><path d="M146.759 94.517c-0.283 0.371 -0.062 0.777 0.375 0.639a2.28 2.28 0 0 1 1.562 -0.049c0.5 0.132 0.7 -0.279 0.326 -0.694a1.493 1.493 0 0 0 -2.263 0.104Z" fill="#000000" stroke-width="1"></path><path d="M155.733 90.783a4.548 4.548 0 0 0 -3.019 -0.9c-0.874 0.153 -0.888 1.166 -0.062 1.277a8.072 8.072 0 0 1 2.707 0.611c1.069 0.453 1.009 -0.501 0.374 -0.988Z" fill="#000000" stroke-width="1"></path><path d="M151.868 107.884a6.265 6.265 0 0 0 4.858 -2.13 0.41 0.41 0 0 0 -0.527 -0.618c-1.651 1.028 -3.474 2.193 -5.49 1.34 -4.754 -2.012 -5.643 -12.49 -5.733 -16.658 -0.01 -0.43 -0.8 -0.569 -0.84 -0.048 -0.379 4.623 0.985 16.442 6.586 17.983a16.534 16.534 0 0 1 -1.436 5.392c-0.309 0.655 1.502 2.364 2.582 -5.261Z" fill="#000000" stroke-width="1"></path><path d="M161.05 100.722c0.171 1.791 1.527 10.168 2.36 11.91 0.229 0.479 1.117 0.208 0.978 -0.278 -0.728 -2.547 -1.882 -8.856 -2.443 -11.757 -0.096 -0.497 -0.945 -0.389 -0.895 0.125Z" fill="#000000" stroke-width="1"></path><path d="M164.326 93.594c-0.974 -1.411 -3.3 -1.263 -4.477 -0.18a12.351 12.351 0 0 1 -0.694 -3.124c-0.518 -3.6 -2.03 -0.072 0.111 4.151 0.25 0.361 0.687 0.488 0.951 0.083 0.595 -0.913 2.482 -1.134 3.1 -0.132a2.478 2.478 0 0 1 -1.666 3.72c-3.056 0.58 -1.3 1.487 0.2 1.229a3.752 3.752 0 0 0 2.475 -5.747Z" fill="#000000" stroke-width="1"></path><path d="M143.886 79.213a18.783 18.783 0 0 0 -3.366 6.687c-0.372 1.382 -0.229 1.971 1.388 2.165A137.627 137.627 0 0 1 134 116.518c-0.192 0.48 0.592 0.692 0.819 0.264 3.576 -6.744 7.031 -20.9 8.328 -28.671a182.934 182.934 0 0 0 18.962 -0.632c1.485 -0.123 1.66 -0.519 1.541 -1.325a14.034 14.034 0 0 0 -5.074 -8.912c10.758 -0.694 13.879 13.34 15.8 21.2 1.386 5.664 3.824 16.137 7.468 20.9a0.424 0.424 0 0 0 0.694 -0.437c-3.255 -6.538 -4.926 -12.818 -6.941 -21.03 -2.058 -8.39 -6.225 -24.306 -18.364 -21.515 -0.063 0.015 -7.469 -4.644 -13.347 2.853ZM157 77.464c3.289 1.965 4.858 5.164 5.608 8.836a185.835 185.835 0 0 1 -21 0.444 15.164 15.164 0 0 1 2.415 -5.851c3.056 -4.535 8.059 -6.364 12.977 -3.429Z" fill="#000000" stroke-width="1"></path><path d="M176.784 147.945a0.41 0.41 0 0 0 -0.8 0.132c0.458 5.49 2.3 17.781 2.374 26.3 -9.245 4.095 -34.363 2.277 -43.9 -0.423 -1.152 -16.865 0.426 -32.408 2.464 -46.966 0.082 -0.59 -0.9 -0.694 -1.021 -0.139 -0.859 4.006 -1.665 11.348 -2.082 15.665a87.664 87.664 0 0 0 -8.12 -12.493c5.92 -10.945 15.13 -14.069 21.266 -15.533 4.3 7.676 15.755 6.3 19.8 -0.812 9.508 2.491 20.773 11.535 25.777 24.132 -3.894 0.77 -11.48 5.122 -14.617 7.815 -0.923 -1.68 -3.141 -5.326 -4.629 -6.517 -0.922 -0.738 -1.489 -0.222 -0.611 0.867a47.4 47.4 0 0 1 4.164 6.289c0.8 1.4 1.3 0.811 1.992 0.284a49.342 49.342 0 0 1 13.236 -7.239c1.505 -0.544 2.217 -0.755 1.61 -2.228 -4.383 -10.629 -14.759 -21.239 -26.02 -24.292 -1.389 -0.376 -1.486 -0.375 -2.117 0.556 -3.293 4.856 -12.22 7.935 -17.434 0.833 -0.759 -1.033 -0.821 -1.093 -1.964 -0.861a30.65 30.65 0 0 0 -20.86 15.385c-0.745 1.379 -1 1.514 0.07 2.86 2.73 3.431 5.552 8.384 8.328 13.186 -0.694 8.794 -1.262 19.643 -0.555 28.457 0.089 1.1 -0.228 1.524 0.993 1.922 9.611 3.133 34.86 4.466 44.474 0.6 1.159 -0.466 1.14 -0.958 1.1 -2.034 -0.243 -5.938 -1.25 -20.454 -2.918 -25.746Z" fill="#000000" stroke-width="1"></path><path d="M107.4 107.947c0.259 -0.688 0.606 -19.552 0.465 -19.975 -0.178 -0.535 -0.882 -0.34 -1.076 0.049 -0.55 1.1 -0.832 18.383 -0.1 19.954a0.389 0.389 0 0 0 0.711 -0.028Z" fill="#000000" stroke-width="1"></path><path d="M138.459 39.1c1.533 0.493 8.867 0.154 10.251 -0.576 0.3 -0.161 0.417 -0.74 0 -0.854a68.853 68.853 0 0 0 -10.251 0.521 0.5 0.5 0 0 0 0 0.909Z" fill="#000000" stroke-width="1"></path><path d="M134.169 25.105a32.228 32.228 0 0 0 8.378 -4.969c0.367 -0.354 0 -1.194 -0.556 -0.944a68.918 68.918 0 0 0 -7.94 5.032c-0.401 0.276 -0.385 1.076 0.118 0.881Z" fill="#000000" stroke-width="1"></path><path d="M145.642 59.238c-0.72 -1.03 -7.864 -3.976 -9.425 -4.351a0.465 0.465 0 0 0 -0.347 0.826c0.978 0.652 8.328 4.456 9.411 4.372a0.534 0.534 0 0 0 0.361 -0.847Z" fill="#000000" stroke-width="1"></path><path d="M82.039 25.293c0.473 0.185 0.785 -0.438 0.514 -0.785 -1.088 -1.39 -7.746 -5.635 -9.273 -6.128a0.583 0.583 0 0 0 -0.492 1.034c1.777 1.274 7.595 5.227 9.251 5.879Z" fill="#000000" stroke-width="1"></path><path d="M75.744 54.1c-1.5 0.5 -9.966 3.138 -10.209 4.053a0.557 0.557 0 0 0 0.413 0.679c0.863 0.21 9.308 -3.126 10.24 -3.941a0.479 0.479 0 0 0 -0.444 -0.791Z" fill="#000000" stroke-width="1"></path><path d="M62.4 37.834c1.3 0.281 10.355 1.027 12.236 0.659a0.465 0.465 0 0 0 0 -0.888c-1.462 -0.466 -10.356 -1 -12.084 -0.84 -0.522 0.047 -0.821 0.925 -0.152 1.069Z" fill="#000000" stroke-width="1"></path><path d="M76.528 118.927a84.483 84.483 0 0 1 -4.039 22.32c-1.7 5.153 -2.98 5.745 -11.9 5.241a0.562 0.562 0 0 0 -0.118 1.11 20.093 20.093 0 0 0 7.9 0.062 6.357 6.357 0 0 0 4.741 -4.164c2.072 -4.862 4.615 -18 4.331 -24.618 -0.028 -0.678 -0.883 -0.578 -0.915 0.049Z" fill="#000000" stroke-width="1"></path><path d="M62.28 110.057c-0.013 -4.164 0.586 -5.563 1.277 -9.37a0.445 0.445 0 0 0 -0.84 -0.271 25.631 25.631 0 0 0 -1.77 9.655c0.02 1.936 1.34 2.318 1.333 -0.014Z" fill="#000000" stroke-width="1"></path><path d="M65.382 110.425a64.482 64.482 0 0 1 1.076 -8.489c0.062 -0.319 -0.555 -0.444 -0.757 -0.194 -0.734 0.91 -1.7 6.17 -1.707 8.586 -0.008 1.957 1.275 1.991 1.388 0.097Z" fill="#000000" stroke-width="1"></path><path d="M42.152 138.291c-0.847 0.554 -0.455 1.13 0.576 0.694 5.567 -2.355 13.606 -15.463 14.874 -19.5 0.653 -2.082 0.34 -3.276 -0.6 -4.428a6.25 6.25 0 0 1 -1.818 -3.7c-0.153 -1.292 0.324 -3.365 -0.612 -3.157a0.443 0.443 0 0 0 -0.332 0.332 9 9 0 0 0 -0.243 2.9c0.2 2.344 0.573 2.476 2.04 4.164a3.329 3.329 0 0 1 0.535 3.6c-2.385 6.637 -10.863 16.771 -14.42 19.095Z" fill="#000000" stroke-width="1"></path><path d="M57.928 113.187c0.167 0.465 0.914 0.25 0.9 -0.187a41.162 41.162 0 0 1 1.277 -11.362c0.15 -0.582 -0.772 -0.7 -0.985 -0.194 -1.112 2.612 -2.163 9.036 -1.192 11.743Z" fill="#000000" stroke-width="1"></path><path d="M68.158 103.72c-1.11 3.061 -0.823 6.635 -0.694 9.842a22.448 22.448 0 0 1 -1.006 9.022c-2.792 9.713 -6.336 19.1 -12.1 27.443 -6.114 8.843 -12.786 6.18 -19.9 3.581 -0.584 -0.213 -0.915 0.735 -0.368 1.007 8.743 4.343 15.224 4.611 21.03 -3.47 6.028 -8.389 9.739 -18.206 12.493 -28.1a23 23 0 0 0 1.166 -9.717c-0.447 -8.4 1.009 -9.761 -0.021 -9.988a0.5 0.5 0 0 0 -0.6 0.38Z" fill="#000000" stroke-width="1"></path><path d="M74.321 78.623c6.507 0.27 9.722 0.757 14.811 4.768 0.431 0.34 0.984 -0.007 0.694 -0.465 -2.671 -4.232 -11.058 -5.937 -15.553 -5.115a0.41 0.41 0 0 0 0.048 0.812Z" fill="#000000" stroke-width="1"></path><path d="M79.686 73.737a0.452 0.452 0 0 0 0 0.9 16.557 16.557 0 0 1 9.245 3.47c0.764 0.6 1.129 0.168 0.791 -0.479 -1.286 -2.47 -7.322 -4.078 -10.036 -3.891Z" fill="#000000" stroke-width="1"></path><path d="M95.712 114.068c-3.212 4.653 -3.366 4.908 -8.106 8.183 -0.764 0.528 -0.694 1.07 0.326 0.771 3.138 -0.921 7.684 -5.589 8.509 -8.669a0.4 0.4 0 0 0 -0.729 -0.285Z" fill="#000000" stroke-width="1"></path><path d="M94.768 109.647c0.077 -0.576 -0.732 -0.692 -0.944 -0.2 -2.772 6.415 -6.487 7.966 -11.361 10.1 -0.923 0.4 -0.748 0.863 0.458 0.694 5.132 -0.723 11.24 -6.047 11.847 -10.594Z" fill="#000000" stroke-width="1"></path><path d="M43.624 95.447c-0.773 0.521 -0.479 1.111 0.159 0.909a2.647 2.647 0 0 1 1.576 0.229c0.564 0.267 0.8 -0.312 0.465 -0.812a1.668 1.668 0 0 0 -2.2 -0.326Z" fill="#000000" stroke-width="1"></path><path d="M47.045 91.227c-1.457 -0.328 -4.113 0.072 -5.108 1.069a0.472 0.472 0 0 0 0.451 0.791 12.745 12.745 0 0 1 4.38 -0.361c1.06 0.09 0.888 -1.361 0.277 -1.499Z" fill="#000000" stroke-width="1"></path><path d="M38.46 104.685c-0.494 0.123 -0.444 0.5 0.236 0.555 2.992 0.222 6.686 -3.617 2.491 -7.065 -0.4 -0.326 -0.8 0.221 -0.478 0.576 2.936 3.2 0.482 5.255 -2.249 5.934Z" fill="#000000" stroke-width="1"></path><path d="M32.56 104.539c-0.347 -0.36 -0.937 0.153 -0.694 0.562a13.425 13.425 0 0 0 7.989 5.553c3.4 0.811 5.918 0.381 7.815 -3.762 0.213 -0.466 -0.376 -0.951 -0.826 -0.416 -1.349 1.6 -2.091 4.294 -7.253 2.817a16.258 16.258 0 0 1 -7.031 -4.754Z" fill="#000000" stroke-width="1"></path><path d="M25.939 107a43.3 43.3 0 0 1 5.553 -8.169c2.359 0.222 2.332 -1.2 1.485 -1.215a2.825 2.825 0 0 1 -2.776 -0.936c-1.4 -1.833 0.955 -7.058 4.219 -4.054 0.384 0.353 0.41 0.52 1.007 0.306 2.415 -0.869 5.552 -3.838 7.093 -6.892 3.352 2.082 7.995 3.87 12.4 1.915 2.616 -1.16 3.908 -3.776 1.839 -8.065 -2.776 -5.754 -12.8 -7.937 -16.921 -7.454 -4.469 0.524 2.457 0.792 3.769 2.235 -3.29 -0.4 -8.481 -0.79 -11.653 0.4 -3.956 1.479 4.164 0.4 7.634 1.492 -7.794 0.4 -12.583 6.1 -10.876 6.135a28.5 28.5 0 0 1 3.647 0.302 17.619 17.619 0 0 0 -2.276 8.3c-1.812 1.624 -2.617 5.691 0.145 7.148 -1.672 1.923 -4.4 6 -5.066 8.2 -0.145 0.473 0.555 0.778 0.777 0.352Z" fill="#000000" stroke-width="1"></path><path d="M58.907 148.389c0 -0.59 -0.861 -0.576 -1.007 0 -1.1 4.338 1.1 22.821 2.429 27.894 -13.936 4.345 -34.7 5.9 -48.437 0.125C9.4 164.221 8.8 156.052 9.268 145.669a0.556 0.556 0 0 0 -1.09 -0.111c-1.27 6.746 0.582 23.871 2.374 30.607 0.329 1.235 0.909 1.77 2.4 2.277 16.79 5.7 36.349 2.694 47.827 -0.854 0.909 -0.281 0.706 -0.89 0.625 -1.6 -0.873 -7.625 -2.577 -17.208 -2.497 -27.599Z" fill="#000000" stroke-width="1"></path><path d="M29.632 156.926c1.715 0.393 2.431 0.341 2.776 -1.326 1.538 -7.444 3.891 -11.74 8.328 -18.093 1.216 -1.742 1.023 -1.914 -1.1 -2.888 -4.285 -1.961 -8.216 -5.212 -11.424 -7.3 -0.383 -0.249 -0.959 0.216 -0.6 0.625 1.813 2.086 9.654 7.481 12.368 8.328 -3.706 5.3 -8.551 13 -8.724 19.635 -7.371 -1.173 -17.4 -7.77 -21.564 -14.055 -2.7 -4.069 -3.321 -8.613 -3.3 -13.416 0.059 -11.8 11.174 -17.906 16.6 -19.718 4.414 1.756 14.012 7.087 17.17 10.737 0.8 0.93 1.2 0.747 1.388 -0.222 0.4 -2.025 0.694 -4.067 1.021 -6.1 4.893 0 6.558 0.632 11.153 2.95a0.467 0.467 0 1 0 0.507 -0.784c-2.339 -1.978 -7.5 -3.507 -10.98 -3.38 -1.694 0.062 -1.834 0.077 -2 1.825 -0.155 1.646 -0.451 3.672 -0.6 4.262 -2.776 -3.047 -12.242 -8.872 -16.31 -10.078 -1.548 -0.459 -1.473 -0.662 -2.964 -0.048 -7.9 3.252 -15.345 9.376 -16.247 18.427 -0.434 4.344 0.227 10.758 2.366 14.609 4.01 7.225 14.004 14.149 22.136 16.01Z" fill="#000000" stroke-width="1"></path></svg>