<svg viewBox="0 0 200 200" xmlns="http://www.w3.org/2000/svg" id="Using-Discount-Coupons-2--Streamline-Brooklyn.svg"><desc>Using Discount Coupons 2 Streamline Illustration: https://streamlinehq.com</desc><path d="M178.775 52.939a174.948 174.948 0 0 0 -7.328 -16.774 0.576 0.576 0 0 0 -0.633 -0.262c-8.684 2.185 -27.655 8.846 -37.053 12.613a0.608 0.608 0 0 0 -0.415 0.732c1.88 5.935 3.589 11.96 6.378 17.549a0.588 0.588 0 0 0 0.666 0.273c2.51 -0.953 5.077 -1.695 7.644 -2.468a0.436 0.436 0 0 0 -0.229 -0.841 43.139 43.139 0 0 0 -7.262 2 111.708 111.708 0 0 1 -5.875 -16.325c18.354 -7.2 30.782 -10.687 36.036 -12.329a140.168 140.168 0 0 1 6.826 15.648c-5.362 2.119 -10.731 4.214 -16.086 6.367 -0.655 0.263 -0.382 1.343 0.3 1.081 5.568 -2.153 11.106 -4.379 16.653 -6.585a0.539 0.539 0 0 0 0.378 -0.679Z" fill="#000000" stroke-width="1"></path><path d="M133.7 46.977c1.432 -0.889 1.628 -1.17 6.923 -5.078 7.074 -5.222 14.216 -9.816 19.307 -13.312 0.078 -0.053 0.35 -0.295 0.437 -0.284s0.2 0.153 0.273 0.207c4.493 3.595 5.81 6.1 7.022 6.978a0.4 0.4 0 0 0 0.578 -0.436c-0.724 -2.063 -5.046 -5.971 -6.847 -7.4 -0.577 -0.46 -0.993 -0.71 -1.681 -0.273 -4.578 2.906 -22.445 15.115 -26.351 19.165a0.279 0.279 0 0 0 0.339 0.433Z" fill="#000000" stroke-width="1"></path><path d="M133.586 45.317c3.6 -3.215 9.458 -10.253 19.395 -19.329 1.9 1.6 2.188 2.007 2.861 2.3 0.349 0.154 0.83 -0.186 0.579 -0.579 -0.346 -0.539 -0.572 -0.675 -3.08 -2.828a0.557 0.557 0 0 0 -0.764 0 216.785 216.785 0 0 0 -19.46 20.082c-0.175 0.288 0.239 0.56 0.469 0.354Z" fill="#000000" stroke-width="1"></path><path d="M76.321 26.021Q73.759 23.7 71 21.631a69.358 69.358 0 0 0 3.025 -6.957c0.143 -0.382 -0.272 -0.685 -0.611 -0.611 -2.083 0.453 -4.183 0.8 -6.3 1.07 -1.07 -1.966 -2.1 -3.963 -3.047 -5.984a0.485 0.485 0 0 0 -0.83 0 33.01 33.01 0 0 0 -3.047 5.318c-2.009 -1.016 -4.011 -2.013 -6.017 -3.036a0.577 0.577 0 0 0 -0.862 0.491c0.144 2.216 0.273 4.445 0.4 6.662a22.28 22.28 0 0 0 -5.886 2.61 0.585 0.585 0 0 0 -0.121 0.906 37.078 37.078 0 0 0 5.471 3.8 49.567 49.567 0 0 0 -3.723 6.094 0.581 0.581 0 0 0 0.491 0.863c2.316 -0.072 4.63 -0.186 6.945 -0.3a31.609 31.609 0 0 1 1.857 6.192 0.551 0.551 0 0 0 0.994 0.131c1.316 -2.057 2.62 -4.117 3.942 -6.17 2.271 1.7 4.537 3.392 6.836 5.045a0.5 0.5 0 0 0 0.753 -0.426c-0.1 -2.382 -0.241 -4.75 -0.349 -7.131 -0.059 -1.3 -0.49 -0.877 2.009 -1.977 1.092 -0.48 2.189 -0.965 3.287 -1.43a0.492 0.492 0 0 0 0.104 -0.77Zm-4.161 1.485c-1.877 0.8 -2.3 0.768 -2.25 1.943 0.091 2.283 0.208 4.576 0.317 6.858Q67 33.949 63.806 31.524a0.517 0.517 0 0 0 -0.7 0.186c-1.179 1.842 -2.392 3.669 -3.571 5.5a36.334 36.334 0 0 0 -1.758 -5.362 0.564 0.564 0 0 0 -0.524 -0.4c-2.107 0.077 -4.215 0.142 -6.323 0.229A52.184 52.184 0 0 1 54.5 26a0.574 0.574 0 0 0 -0.208 -0.776 37.381 37.381 0 0 1 -5.165 -3.461 22.946 22.946 0 0 1 5.351 -2.2 0.591 0.591 0 0 0 0.426 -0.557c-0.1 -2.043 -0.251 -4.1 -0.371 -6.137 1.758 0.884 3.509 1.761 5.263 2.653a0.6 0.6 0 0 0 0.852 -0.437c1.016 -1.55 1.944 -3.167 2.948 -4.728 0.885 1.878 1.84 3.721 2.829 5.547a0.467 0.467 0 0 0 0.426 0.241c1.986 -0.258 3.964 -0.568 5.918 -0.95a68.97 68.97 0 0 1 -2.817 6.311c-0.367 0.727 0.44 0.6 5.122 4.707 -0.981 0.441 -1.942 0.879 -2.914 1.293Z" fill="#000000" stroke-width="1"></path><path d="M60.563 22.81a1.47 1.47 0 0 0 0 -2.938 1.47 1.47 0 0 0 0 2.938Z" fill="#000000" stroke-width="1"></path><path d="M63.992 25.6a1.469 1.469 0 0 0 0 2.937 1.469 1.469 0 0 0 0 -2.937Z" fill="#000000" stroke-width="1"></path><path d="M67.683 18.278c-0.611 0.257 -9.966 9.971 -10.811 10.92a0.317 0.317 0 0 0 0.447 0.448c1.56 -1.251 10.438 -9.59 10.931 -10.9 0.15 -0.393 -0.283 -0.588 -0.567 -0.468Z" fill="#000000" stroke-width="1"></path><path d="M40.382 51.989c-5.289 -3.422 -10.678 -6.709 -16.228 -9.7 -0.719 -0.388 -9.4 -5.059 -10.232 -4.958 -0.71 0.086 -1.04 0.872 -1.376 1.409 -2.752 4.394 -5.233 8.886 -7.48 13.388a0.537 0.537 0 0 0 0.2 0.732c7.629 3.551 11.275 5.721 14.983 7.36a0.3 0.3 0 0 0 0.306 -0.524 142.134 142.134 0 0 0 -14.299 -7.554C8.922 46.833 11 43.23 13.682 38.906c0.188 -0.3 0.254 -0.629 0.644 -0.469a207.475 207.475 0 0 1 25.1 14.153c-2.2 4.018 -4.527 7.963 -6.9 11.881 -0.338 0.557 0.524 1.059 0.874 0.513 2.561 -3.989 4.919 -8.128 7.185 -12.3a0.534 0.534 0 0 0 -0.203 -0.695Z" fill="#64c9cf" stroke-width="1"></path><path d="M22.866 48.112a5.716 5.716 0 0 0 -7.366 -5.143c-4.678 1.2 -5.147 7.684 -1.595 10.614 3.944 3.258 9.246 -0.97 8.961 -5.471Zm-7.24 -1.922a0.552 0.552 0 0 1 0 1.1 0.552 0.552 0 0 1 0 -1.1Zm2.074 5.5a0.481 0.481 0 1 1 0.481 -0.48 0.48 0.48 0 0 1 -0.481 0.484Zm2.589 -3.756c-0.288 0.547 -0.8 0.345 -2.927 1.288 -1.09 0.485 -2.158 0.994 -3.276 1.409 -0.272 0.1 -0.414 -0.3 -0.186 -0.448a26.358 26.358 0 0 1 3.32 -1.8c0.7 -0.311 2.484 -1.106 3 -0.72a0.214 0.214 0 0 1 0.069 0.275Z" fill="#64c9cf" stroke-width="1"></path><path d="M91.565 45.666a5.007 5.007 0 0 0 -4.007 -0.764c-0.055 -0.142 -0.1 -0.284 -0.153 -0.437 1.234 -0.24 2.456 -0.517 3.7 -0.743a0.575 0.575 0 0 0 0.393 -0.688c-0.2 -0.941 -0.421 -1.877 -0.634 -2.817a0.5 0.5 0 0 0 -0.644 -0.382c-1.02 0.05 -7.376 1.088 -7.906 1.452 -0.447 0.307 -0.383 0.786 -0.284 1.256 0.562 2.667 1.063 4.6 1.572 6.6a0.541 0.541 0 0 0 0.656 0.371 6.1 6.1 0 0 1 2.959 -0.524 1.927 1.927 0 0 1 1.509 1.21c0.539 1.812 -2.666 2.092 -3.746 2.326a0.545 0.545 0 0 0 -0.371 0.655 32.221 32.221 0 0 0 1.081 3.615 0.56 0.56 0 0 0 0.513 0.393 9.89 9.89 0 0 0 4.3 -1.267 5.792 5.792 0 0 0 1.059 -10.254Z" fill="#64c9cf" stroke-width="1"></path><path d="M95.759 39.562a4.371 4.371 0 0 0 -0.765 1.5 16.737 16.737 0 0 0 -0.316 1.791 14.208 14.208 0 0 0 1.408 7.262c2.784 6.071 8.847 4.712 9.632 -0.339a14.957 14.957 0 0 0 -1.627 -8.638c-2.391 -4.922 -6.601 -4.099 -8.332 -1.576Zm5.514 8.277c-1.637 1.569 -3.263 -3.406 -1.66 -4.149a0.394 0.394 0 0 0 0.153 -0.022c0.961 -0.262 1.392 0.915 1.617 1.649a2.937 2.937 0 0 1 -0.11 2.522Z" fill="#64c9cf" stroke-width="1"></path><path d="M114.978 35.434c0.032 -0.372 -0.5 -0.471 -0.677 -0.186a22.385 22.385 0 0 0 -1.791 4.488c-0.519 1.52 -3.781 10.516 -4.062 11.226a8.376 8.376 0 0 0 -0.732 2.25c-0.045 0.448 0.535 0.568 0.808 0.339a4.523 4.523 0 0 0 1.158 -1.922c0.813 -1.982 3.727 -10.385 4.106 -11.543a20.833 20.833 0 0 0 1.19 -4.652Z" fill="#64c9cf" stroke-width="1"></path><path d="M109.278 41.953a1.312 1.312 0 0 0 0.1 -2.457 1.338 1.338 0 0 0 -1.747 0.852 1.3 1.3 0 0 0 1.647 1.605Z" fill="#64c9cf" stroke-width="1"></path><path d="M114.421 47.479a1.338 1.338 0 0 0 -1.747 0.852 1.3 1.3 0 1 0 1.747 -0.852Z" fill="#64c9cf" stroke-width="1"></path><path d="M164.021 52.459c-0.579 -0.148 -1.285 0.254 -2.129 0.677 0.721 -1.77 1.174 -3.705 0.349 -5.515a2.16 2.16 0 0 0 -2.359 -1.332c-0.862 0.153 -1.816 1.06 -1.561 2.009a0.294 0.294 0 0 0 0.535 0.065c0.34 -0.627 0.784 -1.426 1.66 -1.037a2.247 2.247 0 0 1 0.994 1.911 9.717 9.717 0 0 1 -1.289 4.936c-0.208 0.447 0.253 1.084 0.753 0.754a14.462 14.462 0 0 1 1.639 -0.951c0.492 -0.238 1.284 -0.355 1.616 -0.8a0.445 0.445 0 0 0 -0.208 -0.717Z" fill="#64c9cf" stroke-width="1"></path><path d="M168.924 43.711a0.6 0.6 0 0 0 0 1.2 0.6 0.6 0 0 0 0 -1.2Z" fill="#64c9cf" stroke-width="1"></path><path d="M171.349 42.849a7.656 7.656 0 0 0 -0.535 1.834c-0.455 2.325 -1.567 4.93 -1.114 5.777a0.3 0.3 0 0 0 0.5 0c0.265 -0.371 0.076 -0.507 0.393 -1.835a35.317 35.317 0 0 0 1.18 -5.656c0.056 -0.24 -0.323 -0.337 -0.424 -0.12Z" fill="#64c9cf" stroke-width="1"></path><path d="M172.332 47.555a0.5 0.5 0 0 0 0 0.994 0.5 0.5 0 0 0 0 -0.994Z" fill="#64c9cf" stroke-width="1"></path><path d="M164.644 44.814a0.369 0.369 0 0 0 0 0.634 4.257 4.257 0 0 1 2.337 3.188c0.176 0.649 0.612 2.322 0.076 2.741 -0.881 0.69 -2.172 -1.671 -2.413 -2.227a5.793 5.793 0 0 1 -0.481 -1.9 4.806 4.806 0 0 1 0.262 -1.737 0.259 0.259 0 0 0 -0.426 -0.251c-1.614 1.376 -0.426 5.19 1.606 6.716a1.522 1.522 0 0 0 2.555 -0.852c0.445 -2.373 -1.745 -7.126 -3.516 -6.312Z" fill="#64c9cf" stroke-width="1"></path><path d="M161.04 23.8c0.049 -0.871 0.428 -7.827 -0.262 -8.474a0.358 0.358 0 0 0 -0.5 0c-0.646 0.688 0.022 7.531 0.142 8.474a0.311 0.311 0 0 0 0.62 0Z" fill="#64c9cf" stroke-width="1"></path><path d="M166.38 24.514c0.061 -0.1 4.368 -7.2 4.335 -7.6a0.309 0.309 0 0 0 -0.382 -0.3c-1.1 0.371 -4.032 6.551 -4.488 7.677 -0.109 0.321 0.37 0.495 0.535 0.223Z" fill="#64c9cf" stroke-width="1"></path><path d="M168.63 27.9a53.4 53.4 0 0 0 6.672 -1.693 2.348 2.348 0 0 0 1.387 -0.95 0.314 0.314 0 0 0 -0.35 -0.459 66.275 66.275 0 0 0 -7.884 2.468 0.344 0.344 0 0 0 0.175 0.634Z" fill="#64c9cf" stroke-width="1"></path><path d="M96.228 103.948c0.653 0.364 0.343 0.088 0.251 0.316a2.218 2.218 0 0 0 -0.131 1.081c0.11 2.9 -0.171 2.627 -0.546 3.353a0.429 0.429 0 0 0 0.481 0.622c1.171 -0.3 1.075 -2.451 0.961 -3.658a2.583 2.583 0 0 0 -0.372 -1.4 7.253 7.253 0 0 0 6.116 -0.24 11.5 11.5 0 0 0 4.805 -6.137c2 0.633 3.539 -0.99 3.876 -2.807 0.258 -1.385 -0.065 -3.21 -1.354 -4.018 -0.939 -0.59 -2.446 -0.318 -2.588 0.917 -0.023 0.207 0.273 0.251 0.372 0.1a1.317 1.317 0 0 1 2.195 0.066c1.2 1.584 0.5 4.584 -1.322 4.969a1.713 1.713 0 0 1 -1.223 -0.219c-0.36 -0.218 -0.493 -0.567 -0.742 -0.884 -0.231 -0.294 -0.657 -0.033 -0.678 0.284a1.412 1.412 0 0 0 0.743 1.266c-1.011 1.243 -1.641 3.551 -3.866 5.144a6.316 6.316 0 0 1 -6.366 0.513c-1.837 -0.87 -2.772 -2.807 -3.331 -4.663 -1.788 -5.936 -0.238 -12.514 -0.317 -14.884a0.29 0.29 0 0 0 -0.567 -0.077 42.663 42.663 0 0 0 -0.9 7.743c-0.106 4.338 0.719 10.498 4.503 12.613Z" fill="#000000" stroke-width="1"></path><path d="M95.092 87.96a1.739 1.739 0 0 0 -1.911 1.584 0.264 0.264 0 0 0 0.492 0.131c0.277 -0.539 0.785 -1.045 1.452 -0.83 0.589 0.189 0.6 0.8 1.038 1.125a0.319 0.319 0 0 0 0.436 -0.12c0.612 -0.819 -0.786 -1.827 -1.507 -1.89Z" fill="#000000" stroke-width="1"></path><path d="M102.835 90.275a0.323 0.323 0 0 0 0.437 -0.12c0.592 -0.844 -0.786 -1.837 -1.507 -1.9a1.737 1.737 0 0 0 -1.911 1.584 0.264 0.264 0 0 0 0.491 0.131c0.278 -0.539 0.787 -1.05 1.453 -0.83 0.59 0.195 0.596 0.813 1.037 1.135Z" fill="#000000" stroke-width="1"></path><path d="M96.894 94.884a0.41 0.41 0 0 0 0.208 -0.754c-0.432 -0.307 -0.607 -0.18 -1.256 -0.775a5.343 5.343 0 0 0 1.977 -5.133c-0.067 -0.272 -0.422 -0.174 -0.448 0.066a6.315 6.315 0 0 1 -2.4 4.619 0.462 0.462 0 0 0 -0.087 0.71 3 3 0 0 0 2.006 1.267Z" fill="#000000" stroke-width="1"></path><path d="M101.088 99.1c-1.2 2.964 -3.206 3.018 -3.9 1.583 -0.374 -0.774 -0.3 -1.752 -0.841 -2.424a0.318 0.318 0 0 0 -0.524 0.142 3.732 3.732 0 0 0 0.208 1.835 4.3 4.3 0 0 0 0.6 1.387 2.42 2.42 0 0 0 2.981 0.753c1.665 -0.711 3.31 -3.672 2.851 -6.454a0.525 0.525 0 0 0 -0.634 -0.36 14.1 14.1 0 0 1 -6.312 0.808c-0.305 -0.043 -0.546 0.36 -0.229 0.535a3.939 3.939 0 0 0 1.529 0.535 11.66 11.66 0 0 0 4.707 -0.71 5.763 5.763 0 0 1 -0.436 2.37Z" fill="#000000" stroke-width="1"></path><path d="M92.679 82.4c0.085 -0.925 -0.323 -1.612 0.186 -3.418 1.449 -5.15 6.986 -6.012 7.633 -6.312 0.4 -0.187 0.175 -0.774 -0.218 -0.786a7.847 7.847 0 0 0 -3.691 1.234 8.956 8.956 0 0 0 -4.511 5.82 5.179 5.179 0 0 0 0.219 3.571 0.208 0.208 0 0 0 0.382 -0.109Z" fill="#000000" stroke-width="1"></path><path d="M97.32 82.042a8.676 8.676 0 0 1 1.332 -4.478c0.241 -0.36 0.749 -0.764 0.71 -1.234a0.277 0.277 0 0 0 -0.273 -0.273c-0.534 -0.029 -0.87 0.614 -1.124 1a6.813 6.813 0 0 0 -1.125 5.045c0.079 0.298 0.448 0.198 0.48 -0.06Z" fill="#000000" stroke-width="1"></path><path d="M103.305 79.737a0.2 0.2 0 0 0 -0.306 -0.043c-0.437 0.382 -0.493 1.091 -0.688 1.616 -0.231 0.622 -0.575 1.192 -0.808 1.8 -0.1 0.252 0.249 0.39 0.415 0.24a4.916 4.916 0 0 0 1.135 -1.791c0.229 -0.544 0.559 -1.259 0.252 -1.822Z" fill="#000000" stroke-width="1"></path><path d="M108.961 80.524c-0.454 0.486 -0.2 1.092 -0.917 2.992a10.085 10.085 0 0 1 -1.715 2.872c-0.131 0.2 0.129 0.432 0.317 0.317 1.391 -0.855 2.259 -2.932 2.621 -4.543a2.493 2.493 0 0 0 0.055 -1.573 0.221 0.221 0 0 0 -0.361 -0.065Z" fill="#000000" stroke-width="1"></path><path d="M100.585 71.46c0.218 0.961 1.125 1.172 2 1.168a13.881 13.881 0 0 1 3.472 0.306 2.343 2.343 0 0 0 2.174 -0.24c0.162 0.325 0.082 -0.4 1.616 1.976a15 15 0 0 1 2.533 6.651c0.437 4.693 -1.83 7.073 -2.468 8.3 -0.119 0.23 0.133 0.537 0.383 0.382 1.372 -0.851 2.106 -2.61 2.555 -4.106a14.171 14.171 0 0 0 -2.6 -12.307 2.813 2.813 0 0 0 -1.682 -1.3 3.26 3.26 0 0 0 0.317 -2.272c-0.508 -2.019 -3.156 -2.389 -4.892 -2.293a3.355 3.355 0 0 0 -2.665 1.267 2.99 2.99 0 0 0 -0.743 2.468Z" fill="#000000" stroke-width="1"></path><path d="M103.468 67.026c1.7 -5.359 8.709 -6.9 12.056 0.546 2.436 5.42 1.321 11.439 3.549 17.844a21.552 21.552 0 0 0 4.532 7.83 8.482 8.482 0 0 1 -2.337 -0.655 12.867 12.867 0 0 1 -2.413 -1.529c-0.658 -5.2 -0.9 -10.5 -3.363 -14.6 -0.832 -1.385 -2.6 -3.463 -4.456 -2.937a0.255 0.255 0 0 0 -0.065 0.458 9.617 9.617 0 0 1 2.118 1.147c5.557 4.716 3.254 18.852 7.47 25.816 0.172 0.285 0.676 0.1 0.557 -0.23a38.268 38.268 0 0 1 -2.108 -8.441c1.669 1.214 4.308 1.895 5.034 1.583 0.1 -0.043 0.326 -0.317 0.229 -0.458 -4.966 -7.326 -5.274 -9.956 -6.1 -18.139a23.863 23.863 0 0 0 -2.293 -9.042c-1.408 -2.6 -3.735 -4.741 -6.847 -4.652a6.086 6.086 0 0 0 -5.941 5.416c-0.023 0.217 0.31 0.251 0.378 0.043Z" fill="#000000" stroke-width="1"></path><path d="M107.946 99.263c-0.009 -0.273 -0.455 -0.36 -0.5 -0.066a12.683 12.683 0 0 0 0.95 6.913 4.134 4.134 0 0 0 1.18 1.9 0.352 0.352 0 0 0 0.524 -0.306 7.214 7.214 0 0 0 -0.841 -1.889 15.85 15.85 0 0 1 -1.313 -6.552Z" fill="#000000" stroke-width="1"></path><path d="M26.961 61.817a2.24 2.24 0 0 0 -0.109 1.551 0.27 0.27 0 0 0 0.415 0.054 2.955 2.955 0 0 0 0.513 -1.288 11.467 11.467 0 0 1 2.337 -4.234c0.227 -0.3 -0.23 -0.579 -0.481 -0.371a9.433 9.433 0 0 0 -2.675 4.288Z" fill="#000000" stroke-width="1"></path><path d="M24.689 62.4c1.209 -1.844 0.868 -4.177 3.67 -7.251 0.218 -0.24 -0.088 -0.7 -0.372 -0.481a8.618 8.618 0 0 0 -2.555 3.408 10.253 10.253 0 0 0 -1.212 4.2 0.257 0.257 0 0 0 0.469 0.124Z" fill="#000000" stroke-width="1"></path><path d="M119.2 120.841a0.948 0.948 0 0 0 -1.157 -0.349c-0.165 0.107 -0.328 0.207 -0.492 0.306 -0.163 -0.863 -2.238 -11.958 -2.609 -13.76 2.687 -0.865 3.462 -1.067 4.968 -1.485 -0.022 -0.284 -0.033 -0.557 -0.043 -0.841 -1.3 0.356 -3.434 0.987 -5.078 1.551a54.906 54.906 0 0 0 -1.387 -5.428c-0.143 -0.447 -0.9 -0.393 -0.863 0.12a56.472 56.472 0 0 0 0.71 5.865c-0.765 0.284 -1.521 0.593 -2.261 0.939 -0.252 0.118 -0.076 0.514 0.186 0.437q1.1 -0.324 2.2 -0.667c0.3 1.726 2.6 14.1 2.621 14.208a60.15 60.15 0 0 1 -12.2 5.471c-6.2 1.982 -9.562 2.1 -17.9 -4.183 0.054 -0.273 2.479 -14.043 2.806 -16.271 1.769 0.754 3.539 1.516 5.3 2.283 0.35 0.152 0.656 -0.329 0.306 -0.525a50.5 50.5 0 0 0 -5.46 -2.773c0.175 -1.344 0.32 -2.7 0.382 -4.052a0.442 0.442 0 0 0 -0.862 -0.12c-0.361 1.168 -0.667 2.359 -0.929 3.549 -11.77 -5 -24.661 -8.76 -37.5 -9.107 -2.418 -9.136 -5.439 -13.288 -11.193 -19.7a29.125 29.125 0 0 0 -3.451 -3.21c0.719 -4.011 -4.538 -6.485 -4.477 -9.271a7.4 7.4 0 0 1 1.529 -3.55c0.228 -0.361 -0.309 -0.788 -0.6 -0.458 -5.9 6.65 3.8 8.429 2.5 13.355a0.485 0.485 0 0 0 0.131 0.492 45.491 45.491 0 0 1 12.58 16.522 46.4 46.4 0 0 1 2.009 6.181c-0.889 0.178 -3.219 0.974 -3.232 2.1a0.292 0.292 0 0 0 0.273 0.273c0.791 0.07 0.937 -0.811 3.9 -1.682 13.092 0.442 25.355 4.075 37.282 9.1 -0.4 1.89 -2.6 14.389 -2.828 15.7a9.942 9.942 0 0 0 -2.3 -1.682 0.605 0.605 0 0 0 -0.743 0.426c-6.171 20.283 -7.744 27.2 -9.926 36.2a0.664 0.664 0 0 0 0.447 0.8c1.586 0.518 3.189 1.005 4.794 1.431 -3.012 11.205 -2.415 25.168 -1.332 28.218a0.346 0.346 0 0 0 0.677 -0.088c0.4 -3.663 -1.75 -10.764 1.671 -27.868a85.923 85.923 0 0 0 41.246 0.163c7.546 17.812 7.131 24.216 8.31 27.017a0.4 0.4 0 0 0 0.775 -0.109c0.323 -3.157 -3.2 -17.991 -8.092 -27.159a76.965 76.965 0 0 0 9.261 -2.948 0.67 0.67 0 0 0 0.459 -0.808c-2.501 -8.474 -7.685 -26.403 -10.408 -34.613Z" fill="#000000" stroke-width="1"></path><path d="M99.766 180.215a0.551 0.551 0 0 0 -0.993 0.131 35.427 35.427 0 0 0 -1.365 10.429c0.02 0.338 0.54 0.449 0.622 0.087 0.605 -2.659 0.387 -4.875 1.452 -9.031 2.765 4.541 3.531 7.755 4.412 9a0.331 0.331 0 0 0 0.612 -0.163 7.447 7.447 0 0 0 -0.732 -2.763 43.043 43.043 0 0 0 -4.008 -7.69Z" fill="#000000" stroke-width="1"></path><path d="M166.14 167.667c-0.6 -2.647 -1.424 -3.975 -5.985 -12.918a14.786 14.786 0 0 0 -1.954 -3.3c-1.663 -1.854 -3.71 -2.184 -5.657 -0.437a236.064 236.064 0 0 0 -11.892 -31.177c-0.272 -0.6 -1.147 -0.077 -0.885 0.513 4.433 9.943 9.07 21.244 12.013 31.822a0.531 0.531 0 0 0 0.884 0.229c1.727 -2.048 3.391 -1.89 4.882 -0.109a13.808 13.808 0 0 1 1.583 2.784c3.156 6.321 4.419 8.29 5.449 11.1 0.883 2.4 1.152 4.95 -0.36 7.164a16.342 16.342 0 0 1 -2.315 2.523c-7.361 7.01 -7.572 7.387 -8.889 8.059a3 3 0 0 1 -3.036 -0.044 7.019 7.019 0 0 1 -2.108 -2.413c-2.243 -3.643 -5.994 -10.955 -7.251 -15.223 -0.676 -2.294 -0.663 -5.468 1.911 -6.563a0.519 0.519 0 0 0 0.186 -0.71c-7.921 -13.474 -15.327 -27.836 -19.067 -43.081 -0.353 -1.438 -2.964 -13.064 -1.562 -14.371 0.764 -0.711 1.192 0.524 1.311 1.1 0.262 1.278 0.153 2.042 0.8 6 2.126 13.051 6.754 23.833 12.875 35.709q3.353 6.506 7.207 12.722a0.472 0.472 0 0 0 0.645 0.164 26.166 26.166 0 0 0 5.635 -3.942 0.468 0.468 0 0 0 0.12 -0.459c-3.709 -10.18 -7.937 -22.539 -12.853 -32.226 -0.272 -0.535 -1.08 -0.066 -0.809 0.47 5.109 10.081 8.6 20.825 12.657 31.734a24.565 24.565 0 0 1 -4.816 3.374 194.53 194.53 0 0 1 -12.6 -24.144 98.521 98.521 0 0 1 -7.524 -25.969c-0.32 -2.275 -0.232 -4.829 -1.605 -5.482a1.573 1.573 0 0 0 -2.02 0.95c-0.918 1.924 0.871 11.384 1.19 12.93 3.213 15.591 11.507 31.071 19.241 44.577 -1.878 1.113 -2.564 3.516 -2.326 5.613 0.425 3.736 5.082 12.772 7.077 16.216 1.125 1.943 2.511 4.415 5.045 4.543 2.675 0.135 4.806 -2.533 6.552 -4.193 1.136 -1.081 2.262 -2.161 3.4 -3.244 3.526 -3.377 5.961 -5.38 4.851 -10.291Z" fill="#000000" stroke-width="1"></path><path d="M140.805 165a0.29 0.29 0 0 0 -0.077 0.568c1.788 0.708 8.592 1.095 10.582 1.168 3.411 0.126 4.356 0.079 5.078 -0.24a4.105 4.105 0 0 0 2.053 -2.861 31.28 31.28 0 0 0 0.841 -5.635c-0.023 -0.328 -0.527 -0.547 -0.688 -0.186 -1.013 2.271 -0.681 6.373 -2.381 7.524a4.9 4.9 0 0 1 -2.773 0.35c-7.754 -0.065 -11.007 -0.883 -12.635 -0.688Z" fill="#000000" stroke-width="1"></path><path d="M155.023 164.435a0.639 0.639 0 0 0 0 -1.278 0.639 0.639 0 0 0 0 1.278Z" fill="#000000" stroke-width="1"></path><path d="M147.674 55.505a11.173 11.173 0 0 1 2.915 2.479c0.341 0.413 0.633 1.157 1.212 1.212a0.324 0.324 0 0 0 0.306 -0.229c0.2 -0.546 -0.48 -1.18 -0.808 -1.573a11.052 11.052 0 0 0 -1.5 -1.485c-0.8 -0.653 -2.486 -1.8 -3.516 -1.8a0.27 0.27 0 0 0 -0.186 0.459 8.609 8.609 0 0 0 1.577 0.937Z" fill="#000000" stroke-width="1"></path><path d="M147.805 51.629c6.03 4.85 5.035 6.892 6.323 7.786a0.279 0.279 0 0 0 0.4 -0.164c0.187 -0.751 -0.45 -1.7 -0.8 -2.326a13.629 13.629 0 0 0 -5.613 -5.7c-0.243 -0.114 -0.559 0.204 -0.31 0.404Z" fill="#000000" stroke-width="1"></path><path d="M151.667 99.383c-2.808 -7.279 -2.858 -15.307 -1.645 -23.107 0.3 -1.941 0.619 -2.739 -0.022 -4.6 -1.771 -5.133 0.016 -6.484 0.076 -9.162 0.061 -2.7 -2.624 -5.355 -4.838 -6.377 -0.381 -0.177 -0.807 0.282 -0.469 0.611 1.709 1.665 4.362 3.112 4.237 5.864 -0.058 1.272 -0.728 2.308 -0.83 4.51 -0.161 3.5 1.237 4.936 1.19 6.629 -0.05 1.849 -3.023 13.835 1.18 25.27a63.411 63.411 0 0 0 -15.4 1.976c-3.221 0.722 -6.432 1.442 -9.643 2.239 0.044 0.3 0.077 0.6 0.11 0.895 0.262 -0.076 0.525 -0.138 0.786 -0.2 9 -2.02 16.631 -4.3 24.822 -3.953 0.5 0.021 0.834 0.851 1.419 0.851a0.286 0.286 0 0 0 0.273 -0.36c-0.065 -0.388 -0.989 -1.014 -1.246 -1.086Z" fill="#000000" stroke-width="1"></path><path d="M30.434 77.826c3.584 7.526 3.135 22.241 12.787 29.212 0.208 -0.251 0.415 -0.5 0.612 -0.753 -8.333 -6.215 -8.789 -17.467 -11.357 -25.718a18.027 18.027 0 0 0 -4.587 -7.917c-4.344 -4.617 -8.665 -7.357 -4.707 -15.594 0.383 -0.8 0.775 -1.606 1.158 -2.4a0.272 0.272 0 0 0 -0.47 -0.273c-8.644 13.117 2.815 15.573 6.564 23.443Z" fill="#000000" stroke-width="1"></path><path d="M76.462 123.342c-3.649 -5.63 -12.486 -8.971 -18.837 -11.171a1.49 1.49 0 0 1 -0.087 1c7.294 2.575 13.17 5.05 18.4 10.571a0.335 0.335 0 0 0 0.524 -0.4Z" fill="#000000" stroke-width="1"></path><path d="M57.516 130.014c-1.57 -1.542 -3.156 -3.057 -4.74 -4.575a31.864 31.864 0 0 1 4.631 -3.549 0.441 0.441 0 0 0 0.087 -0.677 33.737 33.737 0 0 0 -5.515 -4.117 51.261 51.261 0 0 0 4.488 -4.281 0.4 0.4 0 0 0 -0.076 -0.623 25.682 25.682 0 0 0 -5.482 -3.123 0.423 0.423 0 0 0 -0.044 -0.1 23.135 23.135 0 0 0 -3.45 -4.685 0.515 0.515 0 0 0 -0.8 0.1 46.689 46.689 0 0 1 -3.549 4.5c-1.419 -1.333 -2.831 -2.674 -4.27 -4a0.5 0.5 0 0 0 -0.775 0.1c-1.048 1.721 -2.129 3.44 -3.189 5.154a46.653 46.653 0 0 0 -4.968 -4.4 0.5 0.5 0 0 0 -0.666 0.174c-1.374 1.793 -2.763 3.582 -4.139 5.373a34.048 34.048 0 0 1 -4.379 -4.237 0.493 0.493 0 0 0 -0.765 0.1 33.853 33.853 0 0 0 -2.719 5.908 25.889 25.889 0 0 0 -5.285 4.281 0.477 0.477 0 0 0 0.1 0.742c1.623 1.214 3.3 2.37 5.034 3.429a36.287 36.287 0 0 0 -4.685 4.849 0.477 0.477 0 0 0 0.208 0.786 30.128 30.128 0 0 1 5.067 2.719c-1.31 1.759 -2.646 3.517 -3.942 5.286 -0.2 0.271 0.033 0.589 0.284 0.688 1.75 0.692 3.592 1.136 5.362 1.769a20.519 20.519 0 0 0 4.018 5.209 0.468 0.468 0 0 0 0.732 -0.1 31.34 31.34 0 0 1 3.341 -5.1q2.622 2.178 5.253 4.346a0.477 0.477 0 0 0 0.666 0 44.39 44.39 0 0 0 3.877 -5.405c1.43 1.452 2.856 2.91 4.292 4.357a0.473 0.473 0 0 0 0.731 -0.1c1.079 -1.625 2.2 -3.243 3.287 -4.859a51.262 51.262 0 0 1 4.51 3.647 0.464 0.464 0 0 0 0.721 -0.087 51.211 51.211 0 0 0 1.955 -6.006q2.374 -1.375 4.728 -2.807a0.449 0.449 0 0 0 0.066 -0.686Zm-25.8 -4.826a1.827 1.827 0 0 1 -0.8 0.273c0.013 0.1 0.464 3.546 0.459 4.444a0.33 0.33 0 0 1 -0.645 0.087c-0.248 -0.885 -0.718 -4.333 -0.731 -4.433 -0.47 0.054 -3.637 0.424 -4.74 0.557 -0.447 0.054 -0.7 -0.524 -0.5 -0.863 1.409 -2.451 2.784 -4.926 4.226 -7.349a0.562 0.562 0 0 1 1.038 0.284c0.236 1.954 0.731 6.049 0.742 6.137 1.185 -0.132 1.376 0.561 0.946 0.863Zm7.732 2.806c-1.514 2.436 -5.94 1.139 -5.515 -5.919 0.1 -1.619 0.3 -4.015 1.747 -4.5a0.276 0.276 0 0 1 0.262 0.459c-1.676 1.691 -1.239 10.6 1.769 9.948 1.316 -0.283 1.565 -3.707 1.529 -5.034a5.155 5.155 0 0 0 -2.5 -4.565c-0.284 -0.273 -0.088 -0.893 0.349 -0.841 1.6 0.19 2.967 2.383 3.243 4.6 0.183 1.506 -0.15 4.658 -0.889 5.852Zm3.4 -8.955a0.71 0.71 0 1 1 -0.71 0.71 0.708 0.708 0 0 1 0.701 -0.71Zm2.271 7.2a0.656 0.656 0 1 1 0.656 -0.655 0.671 0.671 0 0 1 -0.665 0.652Zm-0.415 -3.68c-0.716 1.427 -1.45 2.834 -2.26 4.2 -0.155 0.261 -0.634 0.087 -0.513 -0.218 0.585 -1.476 1.264 -2.906 1.965 -4.336 1.773 -3.612 1.7 -3.764 2.2 -4.051a0.325 0.325 0 0 1 0.481 0.273c0.065 0.573 -0.157 0.692 -1.877 4.129Z" fill="#64c9cf" stroke-width="1"></path><path d="M29.156 119.858q-1.408 2.506 -2.839 4.991c0.72 -0.087 3.068 -0.349 3.516 -0.4 -0.077 -0.619 -0.584 -3.978 -0.677 -4.591Z" fill="#64c9cf" stroke-width="1"></path><path d="M161.728 105.313c-3.929 6.08 -13.852 9.759 -20.694 12.165 -3.854 1.355 -7.742 2.621 -11.674 3.767 0.11 0.328 0.219 0.666 0.328 0.994 10.105 -3.176 26.905 -7.82 32.531 -15.965 -0.185 -0.317 -0.338 -0.634 -0.491 -0.961Z" fill="#000000" stroke-width="1"></path><path d="M158.485 61.282c-0.087 3.309 -3.146 5.515 -3.375 8.769 -0.241 3.431 4.444 13.122 6.825 20.639 0.175 -0.393 0.361 -0.786 0.568 -1.179 -2.717 -8.152 -7.144 -16.72 -6.475 -20.017 0.466 -2.3 2.42 -4.127 3.046 -6.541 1.138 -4.384 -1.912 -8.423 -5.165 -11.576 -0.238 -0.231 -0.569 0.111 -0.36 0.361 2.292 2.751 5.035 5.733 4.936 9.544Z" fill="#000000" stroke-width="1"></path><path d="M191.759 87.949c-8.93 -13.064 -29.158 -7.322 -30.413 9.523 -0.528 7.076 4.171 13.552 10.647 16.107 7.306 2.883 16.772 0.764 20.825 -6.355 3.351 -5.887 2.718 -13.748 -1.059 -19.275Zm-6.039 5.581a0.821 0.821 0 0 1 0.83 0.83 0.86 0.86 0 0 1 -0.852 0.851 0.821 0.821 0 0 1 -0.83 -0.83 0.86 0.86 0 0 1 0.852 -0.851Zm-12.613 10.538a4.775 4.775 0 0 1 -3.975 -0.251c-0.481 -0.262 -0.284 -1.125 0.284 -1.071 1.016 0.1 1.986 0.642 3.025 0.262a2.162 2.162 0 0 0 1.277 -1.452 2.084 2.084 0 0 0 -2.358 -2.533c-0.667 0.118 -1.159 -0.8 -0.492 -1.158 1.167 -0.626 3.233 -1.8 2.25 -3.429 -0.884 -1.463 -2.741 -0.917 -3.757 0.066a0.39 0.39 0 0 1 -0.611 -0.47 3.214 3.214 0 0 1 5.3 -0.371c0.883 1.184 0.8 2.961 -1.048 4.39a3.277 3.277 0 0 1 0.105 6.017Zm6.268 0.1c-2.312 -0.37 -2.872 -4.435 -2.544 -6.9a10.929 10.929 0 0 1 0.742 -2.8c0.249 -0.591 0.756 -1.894 1.606 -1.54a0.331 0.331 0 0 1 0 0.633c-0.337 0.1 -0.522 0.9 -0.623 1.18a9.929 9.929 0 0 0 -0.688 3.5c-0.1 4.675 2.237 6.372 3.44 2.938a9.965 9.965 0 0 0 0.513 -4.5 4.915 4.915 0 0 0 -0.644 -2.108 3.162 3.162 0 0 0 -1.485 -0.994 0.49 0.49 0 0 1 0.12 -0.884c0.951 -0.313 1.921 0.524 2.4 1.277 1.828 2.866 0.728 10.766 -2.837 10.196Zm8.562 -2.381a0.82 0.82 0 0 1 -0.83 -0.83 0.86 0.86 0 0 1 0.852 -0.851 0.82 0.82 0 0 1 0.829 0.83 0.861 0.861 0 0 1 -0.851 0.849Zm2.195 -8.692c-0.092 0.565 -0.195 0.546 -2.883 4.816 -1.022 1.623 -2.029 3.223 -3.178 4.761a0.247 0.247 0 0 1 -0.426 -0.251 64.714 64.714 0 0 1 4.368 -7.6 6.368 6.368 0 0 1 1.594 -2.129c0.283 -0.18 0.569 0.128 0.525 0.401Z" fill="#64c9cf" stroke-width="1"></path></svg>