<svg xmlns="http://www.w3.org/2000/svg" fill="none" viewBox="0 0 200 200" id="Asynchronous-Work-3--Streamline-Brooklyn.svg"><desc>Asynchronous Work 3 Streamline Illustration: https://streamlinehq.com</desc><g id="asynchronous-work-3--work-asynchronous"><path id="document" fill="#64c9cf" d="M62.8 137.8c-1.152 4.265 -4.312 39.574 -4.698 44.017 -0.032 0.455 -0.436 0.916 -1.093 0.914 -0.17 0 -36.249 -0.053 -36.289 -0.055 -0.159 -3.309 -0.764 -13.633 -2.164 -14.683 -1.36 -1.02 -9.489 3.185 -12.458 4.78 3.87 -36.105 5.436 -60.065 5.691 -60.98 0.112 -0.37 0.451 -0.651 0.816 -0.706 0.057 -0.014 5.74 -0.089 16.003 0.151 0.192 -0.7 0.396 -1.412 0.611 -2.135 -3.645 -0.011 -8.559 -0.005 -16.425 -0.053a3.08 3.08 0 0 0 -3.075 2.918c-0.119 2.148 -5.698 61.405 -5.698 61.405 -0.079 0.971 0.344 1.975 1.112 2.571 0.43 0.333 14.242 8.379 14.348 8.431 0.923 0.455 0.04 -0.16 37.534 0.317a3.009 3.009 0 0 0 3.041 -2.717s3.091 -41.208 3.113 -42.382c0.034 -1.826 -0.074 -2.884 -0.369 -1.793Z" stroke-width="1"></path><g id="hand 1"><path id="vector" fill="#000000" d="M155.057 44.746c0.069 -0.25 0.149 -0.5 0.243 -0.748l0.078 -0.208c-0.005 -0.681 -0.115 -1.74 -0.378 -3.243 -0.777 -4.445 -0.32 -5.406 -0.358 -5.203 0.817 0.93 1.577 2.709 2.219 4.517l0.726 -1.925c-1.021 -2.517 -2.43 -4.93 -3.807 -3.75 -0.218 0.306 -0.366 0.46 -0.487 1.087 -0.361 1.87 0.521 6.346 0.827 7.432 0.331 1.17 0.688 1.914 0.937 2.04Z" stroke-width="1"></path><path id="vector_2" fill="#000000" d="M157.751 35.95c0.401 -0.526 -0.473 -3.8 -0.632 -5.555 -0.103 -1.132 0.074 -1.406 0.071 -1.506 0.785 0.858 1.493 2.582 1.915 3.66 0.09 0.229 0.176 0.458 0.258 0.684l0.715 -1.896c-0.944 -2.275 -2.203 -4.425 -3.401 -3.816 -2.234 0.987 0.312 9.429 1.074 8.429Z" stroke-width="1"></path><path id="vector_3" fill="#000000" d="M160.584 28c0.407 -0.536 -0.469 -3.76 -0.632 -5.555 -0.103 -1.132 0.073 -1.404 0.071 -1.506 0.783 0.856 1.492 2.58 1.915 3.66 0.12 0.306 0.232 0.61 0.339 0.91l0.27 -0.715a8.5 8.5 0 0 1 0.497 -1.08c-0.957 -2.392 -2.279 -4.783 -3.534 -4.143 -2.236 0.983 0.315 9.427 1.074 8.43Z" stroke-width="1"></path><path id="vector_4" fill="#000000" d="M154.038 115.458c12.416 -9.164 19.337 -29.863 21.941 -45.163 0.069 -0.406 0.141 -0.833 0.021 -1.15 -0.1 -0.338 -0.35 -0.652 -0.657 -0.84 -0.496 -0.304 -0.862 -0.214 -2.502 -0.15 -6.486 0.258 -12.763 -1.2 -18.062 -4.947 -0.299 -0.211 -0.372 -0.31 -0.985 -0.742 -0.885 -0.934 -2.243 -0.38 -2.491 0.693 -0.631 2.72 -1.43 5.275 -2.354 7.542 -2.566 6.3 -5.062 9.719 -5.78 10.915 -2.08 3.466 6.242 -2.992 9.861 -17.275 1.109 0.905 2.343 1.732 4.184 2.654 5.337 2.67 10.921 3.362 16.776 3.118 -0.312 0 -2.812 23.64 -16.715 39.988 -0.74 1.006 -1.629 1.857 -2.454 2.759 -1.484 1.623 -0.798 0.931 -2.44 2.426a17.88 17.88 0 0 0 -1.156 1.127c-1.622 1.788 0.712 0.596 2.813 -0.955Z" stroke-width="1"></path><path id="vector_5" fill="#000000" d="M166.042 57.138c0.436 0.287 1.098 0.503 1.548 0.6 3.3 0.709 7.052 -0.893 8.934 -3.846 0.369 -0.58 0.68 -1.24 0.916 -1.851 0 0 7.181 -18.801 7.458 -19.803 0.849 -3.076 -0.104 -6.648 -2.574 -8.962 -1.643 -1.54 -3.126 -1.937 -6.082 -3.031 -2.528 -0.935 -4.14 -1.81 -6.865 -1.498 -2.448 0.28 -4.724 1.622 -6.199 3.559 -0.729 0.957 -1.216 2.15 -1.581 3.15 -0.379 1.04 -6.616 17.45 -7.097 18.975 -1.251 3.962 0.673 9.062 5.272 10.788 1.306 0.49 7.157 2.505 5.954 1.627 -0.541 -0.395 -2.183 -1.102 -3.332 -1.598 -2.031 -0.876 -4.174 -1.398 -5.844 -4.16 -1.25 -2.066 -1.451 -4.682 -0.585 -6.943 6.858 -17.89 7.079 -19.186 7.868 -20.442 1.937 -3.082 5.505 -4.257 8.542 -3.438 0.61 0.164 0.845 0.262 4.954 1.82 1.696 0.645 4.029 1.284 5.57 4.11a7.935 7.935 0 0 1 0.943 4.035c-0.042 1.335 -0.504 2.454 -0.947 3.627 -6.287 16.636 -6.813 18.375 -7.175 18.954a8.197 8.197 0 0 1 -7.225 4.34c-1.481 0.004 -3.161 -0.483 -2.453 -0.017v0.004Z" stroke-width="1"></path><path id="vector_6" fill="#64c9cf" d="M170.957 33.19c-3.499 -0.893 -7.397 0.924 -8.69 4.352a7.22 7.22 0 0 0 4.206 9.305c3.81 1.438 8.252 -0.685 9.428 -4.587 1.133 -3.755 -1.084 -8.086 -4.944 -9.07Z" stroke-width="1"></path><path id="vector_7" fill="#000000" d="M177.751 35.685c-0.497 -0.255 -2.313 0.833 -2.78 1.146 -0.022 0.015 -7.236 4.878 -7.251 4.855 -0.338 -0.677 -0.532 -1.338 -1.038 -2.084 -0.233 -0.344 -0.657 -0.968 -0.917 -0.63 -0.125 0.162 -0.102 0.45 -0.069 0.645 0.222 1.304 0.633 2.152 0.972 2.935 0.193 0.446 0.971 0.867 1.665 0.334 5.844 -3.901 10.421 -6.686 9.418 -7.201Z" stroke-width="1"></path><path id="vector_8" fill="#000000" d="M175.46 23.025a1.022 1.022 0 1 0 -0.723 1.913 1.022 1.022 0 0 0 0.723 -1.913Z" stroke-width="1"></path><path id="vector_9" fill="#000000" d="M182.441 31.75c-0.203 0.299 -0.194 0.983 -0.164 1.459 0.364 5.907 1.914 11.159 1.104 17.13 -0.61 4.5 -7.183 14.553 -7.445 15.019a64.584 64.584 0 0 0 -1.621 3.14c-0.462 1.03 0.858 1.296 1.034 1.103 1.312 -1.44 3.016 -4.433 4.046 -6.141 1.861 -3.085 4.12 -6.883 5.303 -10.286 0.883 -2.541 1.029 -5.013 0.884 -7.938 -0.178 -3.59 -0.819 -9.227 -2.266 -12.724a3.13 3.13 0 0 0 -0.303 -0.598c-0.188 -0.266 -0.421 -0.387 -0.574 -0.163h0.002Z" stroke-width="1"></path></g><g id="mail 1"><g id="group"><path id="vector_10" fill="#000000" d="M35.937 44.562c-0.052 0.062 -1.346 1.626 -1.346 1.785 0 0.7 1.296 1.423 1.646 1.007 1.057 -1.257 1.314 -1.495 1.314 -1.747 0 -0.674 -1.227 -1.503 -1.614 -1.045Z" stroke-width="1"></path><path id="vector_11" fill="#000000" d="M45.885 35.916c-0.201 -0.178 -0.37 -0.213 -0.47 -0.216 -0.406 -0.011 -0.718 0.104 -0.949 0.314 -0.122 0.11 -3.172 2.926 -3.285 3.168 -0.126 0.268 -0.122 0.586 -0.059 0.73 0.122 0.28 0.493 0.596 0.828 0.598 0.417 0.002 0.729 -0.114 0.953 -0.32 2.635 -2.411 3.182 -2.787 3.294 -3.354 0.07 -0.355 0.018 -0.628 -0.312 -0.92Z" stroke-width="1"></path><path id="vector_12" fill="#000000" d="M56.018 28.538c-0.172 -0.206 -0.334 -0.266 -0.433 -0.284 -0.4 -0.072 -0.726 -0.004 -0.985 0.17 -0.137 0.092 -3.573 2.421 -3.721 2.643 -0.164 0.246 -0.208 0.563 -0.167 0.715 0.078 0.292 0.395 0.661 0.73 0.713 0.412 0.064 0.737 -0.004 0.99 -0.173 3.238 -2.174 3.577 -2.327 3.757 -2.827 0.12 -0.338 0.112 -0.618 -0.171 -0.957Z" stroke-width="1"></path><path id="vector_13" fill="#000000" d="M67.14 22.759c-0.14 -0.23 -0.29 -0.313 -0.384 -0.345 -0.384 -0.131 -0.717 -0.113 -1 0.02 -0.15 0.07 -3.894 1.859 -4.074 2.057 -0.198 0.219 -0.29 0.524 -0.272 0.682 0.034 0.304 0.295 0.714 0.615 0.814 0.398 0.125 0.73 0.107 1.005 -0.023 3.278 -1.547 3.868 -1.734 4.138 -2.232 0.17 -0.317 0.203 -0.595 -0.026 -0.972l-0.001 -0.001Z" stroke-width="1"></path><path id="vector_14" fill="#000000" d="M79.008 18.72c-0.103 -0.249 -0.24 -0.354 -0.329 -0.4 -0.36 -0.187 -0.692 -0.219 -0.991 -0.13 -0.159 0.047 -4.132 1.251 -4.339 1.42 -0.232 0.187 -0.366 0.475 -0.372 0.632 -0.012 0.306 0.185 0.751 0.485 0.897 0.375 0.183 0.705 0.216 0.997 0.128 3.364 -1.005 4.074 -1.115 4.427 -1.584 0.218 -0.29 0.292 -0.558 0.122 -0.964Z" stroke-width="1"></path><path id="vector_15" fill="#000000" d="M91.352 16.512c-0.065 -0.26 -0.184 -0.385 -0.265 -0.444 -0.328 -0.24 -0.651 -0.32 -0.961 -0.278 -0.164 0.023 -4.274 0.615 -4.505 0.75 -0.255 0.15 -0.433 0.413 -0.463 0.57 -0.058 0.3 0.069 0.77 0.345 0.96 0.343 0.236 0.665 0.318 0.967 0.276 3.503 -0.493 4.198 -0.49 4.617 -0.9 0.256 -0.25 0.373 -0.5 0.265 -0.934Z" stroke-width="1"></path><path id="vector_16" fill="#000000" d="M103.692 15.686c-0.289 -0.29 -0.597 -0.424 -0.909 -0.43 -4.524 -0.08 -4.619 -0.05 -5.011 0.417 -0.233 0.276 -0.177 0.909 0.101 1.164 0.304 0.279 0.61 0.4 0.915 0.396 0.162 -0.036 3.323 0.03 3.575 0.04 1.781 0.076 1.684 -1.23 1.329 -1.586v-0.001Z" stroke-width="1"></path><path id="vector_17" fill="#000000" d="M116.341 17.686c0.015 -0.27 -0.063 -0.422 -0.123 -0.503 -0.243 -0.325 -0.529 -0.497 -0.837 -0.547 -0.163 -0.026 -4.267 -0.668 -4.527 -0.606 -0.29 0.069 -0.536 0.27 -0.61 0.409 -0.143 0.268 -0.161 0.755 0.047 1.019 0.258 0.328 0.542 0.5 0.843 0.549 3.592 0.575 4.164 0.76 4.679 0.496 0.321 -0.165 0.504 -0.377 0.528 -0.817Z" stroke-width="1"></path><path id="vector_18" fill="#000000" d="M128.423 21.057c0.055 -0.263 0.001 -0.427 -0.046 -0.516 -0.191 -0.358 -0.447 -0.572 -0.745 -0.667 -0.157 -0.05 -4.118 -1.303 -4.384 -1.28 -0.289 0.023 -0.568 0.182 -0.664 0.311 -0.182 0.244 -0.272 0.723 -0.106 1.015 0.206 0.363 0.46 0.576 0.751 0.67 3.408 1.092 4.004 1.378 4.55 1.193 0.338 -0.114 0.553 -0.284 0.645 -0.727l-0.001 0.001Z" stroke-width="1"></path><path id="vector_19" fill="#000000" d="M139.857 26.21c0.094 -0.252 0.066 -0.422 0.032 -0.516 -0.136 -0.383 -0.356 -0.633 -0.636 -0.772 -0.148 -0.074 -3.874 -1.908 -4.141 -1.927 -0.292 -0.02 -0.59 0.096 -0.704 0.208 -0.217 0.215 -0.378 0.674 -0.258 0.987 0.149 0.39 0.369 0.638 0.641 0.774 3.443 1.717 3.784 1.96 4.318 1.867 0.355 -0.06 0.593 -0.21 0.747 -0.622l0.001 0.001Z" stroke-width="1"></path><path id="vector_20" fill="#000000" d="M147.865 30.111c-0.067 -0.045 -1.76 -1.166 -1.917 -1.149 -0.694 0.075 -1.278 1.438 -0.827 1.743 1.501 1.014 1.675 1.228 2.045 1.075 0.678 -0.28 1.108 -1.393 0.699 -1.669Z" stroke-width="1"></path></g><path id="vector_21" fill="#000000" d="M48.535 53.408c1.306 -1.298 0.203 -3.328 -1.423 -3.12 -4.477 0.87 -13.559 3.553 -18.335 6.36a2.422 2.422 0 0 1 -3.525 -1.324c-0.85 -2.55 -5.162 -14.034 -5.318 -14.447 -0.647 -1.624 -2.938 -1.507 -3.421 0.176 -4.479 15.616 -8.332 37.734 -3.376 53.291 0.181 0.596 1.417 3.704 1.597 4.02 0.687 1.202 2.46 1.308 3.362 0.31 0.509 -0.564 17.225 -32.032 28.623 -43.419l1.818 -1.846 -0.002 0ZM15.79 95.67c-0.262 -0.694 -0.588 -1.363 -0.785 -2.084 -1.01 -3.962 -0.591 -0.72 -1.56 -6.864 -2.255 -14.3 0.968 -30.87 4.77 -44.719 0.007 -0.033 0.014 -0.063 0.041 -0.08 0.055 -0.034 0.116 0.008 0.125 0.055 0.322 0.79 5.69 13.51 6.861 15.733a1.767 1.767 0 0 1 -0.111 1.828c-0.824 1.19 -2.094 3.262 -2.998 5.56 -0.227 0.474 -2.156 5.526 -3.456 10.828 -1.317 5.046 -3.006 14.504 -2.887 19.745v-0.002Zm1.677 0.096c0.109 -1.027 0.194 -2.262 0.287 -2.898 0.161 -0.95 0.334 -1.906 0.415 -2.87 0.504 -5.98 2.632 -15.72 5.235 -22.722 1.248 -3.382 1.31 -3.074 2.318 -5.94 0.43 -1.222 0.679 -2.48 2.253 -3.208 4.165 -1.929 7.673 -3.024 12.478 -4.285 0.712 -0.185 6.1 -1.528 6.324 -1.505 0.41 0.124 -9.693 7.477 -29.31 43.428Z" stroke-width="1"></path></g><g id="mail 2"><g id="group_2"><path id="vector_22" fill="#000000" d="M179.376 128.282c0.027 -0.077 0.678 -2.001 0.621 -2.149 -0.25 -0.651 -1.717 -0.87 -1.897 -0.354 -0.522 1.501 -0.694 1.869 -0.605 2.101 0.241 0.631 1.684 0.966 1.88 0.401l0.001 0.001Z" stroke-width="1"></path><path id="vector_23" fill="#000000" d="M174.543 139.125c0.073 -0.145 1.884 -3.797 1.901 -4.06 0.019 -0.29 -0.098 -0.583 -0.211 -0.696 -0.572 -0.575 -1.46 -0.227 -1.754 0.359 -1.593 3.18 -1.941 3.678 -1.84 4.236 0.181 1.002 1.458 1.05 1.904 0.161Z" stroke-width="1"></path><path id="vector_24" fill="#000000" d="M167.921 149.652c0.093 -0.133 2.421 -3.479 2.477 -3.736 0.173 -0.799 -0.591 -1.22 -1.041 -1.125 -0.404 0.084 -0.68 0.259 -0.852 0.504 -2.06 2.934 -2.461 3.36 -2.443 3.918 0.03 0.935 1.232 1.33 1.859 0.439Z" stroke-width="1"></path><path id="vector_25" fill="#000000" d="M159.831 159.092c0.112 -0.117 2.903 -3.086 2.995 -3.333 0.102 -0.272 0.074 -0.587 0 -0.727 -0.381 -0.716 -1.33 -0.642 -1.782 -0.166 -2.388 2.518 -2.923 2.95 -2.989 3.519 -0.116 0.998 1.067 1.451 1.776 0.706v0.001Z" stroke-width="1"></path><path id="vector_26" fill="#000000" d="M149.043 167.227c0.187 0.193 0.351 0.242 0.45 0.253 0.4 0.046 0.715 -0.043 0.957 -0.232 0.128 -0.1 3.322 -2.629 3.45 -2.859 0.142 -0.255 0.159 -0.57 0.106 -0.719 -0.102 -0.287 -0.446 -0.631 -0.777 -0.66 -0.411 -0.036 -0.726 0.051 -0.961 0.235 -2.721 2.137 -3.32 2.483 -3.47 3.044 -0.093 0.345 -0.06 0.62 0.247 0.937l-0.002 0.001Z" stroke-width="1"></path><path id="vector_27" fill="#000000" d="M138.588 173.715c0.156 0.219 0.312 0.291 0.408 0.316 0.389 0.103 0.714 0.063 0.98 -0.089 0.141 -0.08 3.672 -2.113 3.832 -2.322 0.178 -0.233 0.241 -0.541 0.21 -0.696 -0.059 -0.298 -0.349 -0.689 -0.672 -0.767 -0.402 -0.096 -0.726 -0.056 -0.985 0.092 -3.107 1.773 -3.656 1.989 -3.879 2.502 -0.142 0.329 -0.151 0.603 0.107 0.963l-0.001 0.001Z" stroke-width="1"></path><path id="vector_28" fill="#000000" d="M127.291 178.592c0.122 0.239 0.265 0.334 0.357 0.374 0.369 0.16 0.697 0.166 0.983 0.056 0.151 -0.058 3.944 -1.549 4.133 -1.732 0.209 -0.202 0.318 -0.499 0.311 -0.657 -0.014 -0.304 -0.243 -0.733 -0.552 -0.857 -0.383 -0.154 -0.71 -0.163 -0.988 -0.054 -3.335 1.297 -3.903 1.417 -4.206 1.902 -0.189 0.302 -0.238 0.577 -0.038 0.968Z" stroke-width="1"></path><path id="vector_29" fill="#000000" d="M115.69 182.168c0.341 0.213 0.665 0.268 0.964 0.201 4.478 -1.008 4.371 -1.08 4.537 -1.281 0.083 -0.1 0.197 -0.273 0.212 -0.424 0.031 -0.305 -0.134 -0.762 -0.419 -0.93 -0.356 -0.21 -0.678 -0.265 -0.97 -0.2 -2.201 0.496 -3.846 0.795 -4.246 1.079 -0.232 0.165 -0.402 0.446 -0.429 0.609 -0.05 0.306 0.075 0.773 0.351 0.945v0.001Z" stroke-width="1"></path><path id="vector_30" fill="#000000" d="M103.157 183.111c0.047 0.265 0.157 0.396 0.232 0.461 0.306 0.261 0.618 0.362 0.924 0.34 0.162 -0.012 4.226 -0.33 4.46 -0.45 0.262 -0.134 0.45 -0.385 0.489 -0.538 0.075 -0.295 -0.019 -0.771 -0.278 -0.981 -0.321 -0.26 -0.632 -0.362 -0.93 -0.34 -3.572 0.267 -4.149 0.217 -4.581 0.593 -0.27 0.235 -0.394 0.481 -0.316 0.915Z" stroke-width="1"></path><path id="vector_31" fill="#000000" d="M90.85 182.684c0.01 0.269 0.099 0.415 0.164 0.49 0.265 0.302 0.559 0.449 0.865 0.471 0.162 0.012 4.23 0.286 4.479 0.201 0.276 -0.094 0.5 -0.316 0.562 -0.461 0.116 -0.279 0.095 -0.765 -0.132 -1.011 -0.28 -0.304 -0.572 -0.45 -0.871 -0.471 -3.82 -0.27 -4.174 -0.365 -4.62 -0.078 -0.3 0.193 -0.46 0.419 -0.446 0.859Z" stroke-width="1"></path><path id="vector_32" fill="#000000" d="M78.829 180.968c0.218 0.338 0.487 0.526 0.786 0.593 0.159 0.035 4.142 0.904 4.401 0.857 0.287 -0.052 0.543 -0.239 0.624 -0.374 0.157 -0.261 0.204 -0.744 0.017 -1.02 -0.232 -0.342 -0.5 -0.529 -0.792 -0.594 -3.691 -0.824 -4.068 -0.976 -4.556 -0.756 -0.618 0.278 -0.674 0.992 -0.48 1.294Z" stroke-width="1"></path><path id="vector_33" fill="#000000" d="M70.127 178.636c0.076 0.028 1.989 0.707 2.138 0.653 0.653 -0.239 0.896 -1.703 0.382 -1.891 -1.543 -0.563 -1.854 -0.722 -2.091 -0.635 -0.636 0.232 -0.99 1.669 -0.429 1.874v-0.001Z" stroke-width="1"></path></g><path id="vector_34" fill="#000000" d="M187.632 80.65c-0.208 -0.375 -2.116 -3.259 -2.414 -3.59 -0.995 -1.106 -3.046 -0.752 -3.546 0.851 -4.744 15.215 -11.191 36.672 -19.819 50.072 -0.258 0.401 -0.41 0.676 -0.441 1.158 -0.039 1.113 0.948 1.978 1.947 1.864 0.371 -0.013 0.687 -0.187 1.372 -0.515 3.565 -1.708 7.311 -3.718 10.643 -5.903 3.756 -2.471 5.392 -4.047 7.171 -6.123 0.818 2.159 7.177 11.83 9.802 15.875 0.978 1.45 3.191 0.848 3.305 -0.899 1.068 -16.323 0.116 -38.663 -8.019 -52.792l-0.001 0.001Zm-10.686 40.693c-7.345 4.797 -6.834 4.462 -13.245 7.497 -0.017 0.004 -0.031 0.004 -0.038 -0.009 -0.006 -0.012 0.009 -0.028 0.009 -0.028 -0.045 0.102 8.442 -11.294 19.503 -48.884 0.512 7.447 1.234 12.498 0.945 19.991 -0.212 7.484 -1.275 12.289 -1.577 14.223 -0.315 2.016 -0.421 2.616 -0.499 3.029 -1.367 1.181 -3.846 3.387 -5.098 4.181Zm16.816 11.618c-0.046 0.046 -0.115 0.018 -0.134 -0.026 -2.868 -4.184 -5.427 -8.02 -10.148 -15.659 1.787 -4.543 2.521 -12.611 2.649 -17.452 0.225 -5.456 -0.218 -10.97 -0.27 -11.782 0.07 -0.966 -0.743 -5.862 -1.165 -8.22 0.417 0.654 0.91 1.271 1.272 1.965 1.035 2.072 1.808 2.922 3.73 8.601 1.271 3.514 3.187 11.492 3.954 21.835 0.731 10.057 0.215 20.646 0.112 20.738Z" stroke-width="1"></path></g><g id="hand 2"><path id="vector_35" fill="#000000" d="M48.204 77.862c-1.4 0.41 -7.625 4.704 -12.567 13.461 -4.158 7.37 -6.766 14.518 -8.819 22.896 -0.864 3.524 -1.561 7.342 -1.885 9.773 -0.304 2.281 -0.445 2.667 0.067 3.264 0.953 1.111 2.113 0.113 6.401 0.357 0.526 0.03 1.054 0.016 1.573 0.08 10.177 0.71 14.129 5.636 15.185 5.492 0.339 0.005 0.697 -0.129 0.949 -0.345 0.715 -0.616 0.394 -1.19 1.57 -5.308 1.09 -3.816 3.302 -9.057 5.642 -12.894 0.535 -0.878 1.699 -2.63 0.888 -2.264 -0.625 0.283 -1.785 1.588 -2.504 2.568 -3.471 4.733 -5.6 10.17 -6.859 15.903 -4.445 -3.248 -9.986 -4.9 -15.274 -5.187 -2.879 -0.156 -4.641 0.003 -5.85 0.093 1.909 -13.99 6.688 -29.559 15.407 -40.505 0.668 -0.972 1.023 -1.275 3.495 -4.153 1.071 -1.034 1.849 -1.762 2.349 -2.35 0.491 -0.579 0.704 -1.019 0.232 -0.88Z" stroke-width="1"></path><path id="vector_36" fill="#000000" d="M40.673 171.466c-0.402 -0.08 -1.156 -0.029 -1.783 -0.113 -3.904 -0.523 -12.628 -3.289 -13.212 -3.636 -0.377 -0.338 -0.854 -1.219 -1.223 -2.074 -1.057 -2.446 -2.177 -6.374 -2.538 -9.378 -0.338 -2.814 2.263 -9.016 3.761 -11.763 1.17 -2.142 3.031 -4.558 3.53 -8.344 0.1 -0.77 0.214 -2.15 0.055 -2.865 -0.096 -0.429 -0.3 -0.662 -0.503 -0.419 -0.267 0.32 -0.49 1.186 -0.66 1.79 -1.736 6.19 -3.158 6.371 -5.54 11.68 -1.282 2.854 -2.087 5.502 -2.44 7.287 -0.294 1.485 -0.286 2.137 -0.176 3.058 0.34 2.84 2.317 11.135 4.64 12.732 0.497 0.422 5.544 1.891 6.336 2.108 2.693 0.736 5.974 1.474 8.673 0.955 0.338 -0.117 0.665 -0.177 0.924 -0.379 0.405 -0.316 0.48 -0.574 0.156 -0.639Z" stroke-width="1"></path><path id="vector_37" fill="#64c9cf" d="M52.793 180.985c-3.1 -5.025 -2.875 -4.939 -3.265 -5.303L13.7 141.269a2.147 2.147 0 1 0 -2.956 3.116l36.238 33.951c0.358 0.342 0.251 0.239 5.392 3.096 0.287 0.16 0.592 -0.167 0.419 -0.447Z" stroke-width="1"></path><path id="vector_38" fill="#000000" d="M39.804 133.2c-0.635 0.486 -0.762 2.679 -2.535 6.438 -2.085 4.42 -5.618 6.962 -7.341 11.909 -2 5.741 -1.306 7.193 -0.238 9.814 0.754 1.85 1.753 4.118 2.824 5.805 0.235 0.37 0.876 1.347 1.209 1.633 0.243 0.208 0.496 0.268 0.593 0.018 0.466 -1.192 -3.323 -9.068 -3.511 -10.115 -0.526 -2.044 0.355 -4.641 1.057 -6.606 2.04 -5.707 8.058 -9.316 8.528 -16.497 0.032 -0.49 0.06 -1.604 -0.092 -2.074 -0.1 -0.308 -0.282 -0.489 -0.496 -0.325h0.002Z" stroke-width="1"></path><path id="vector_39" fill="#000000" d="M47.316 158.968c-1.484 1.938 -1.704 2.625 -3.013 4.38 0.104 0.097 -0.67 0.332 -1.247 0.293 -3.698 -0.245 -6.798 -6.849 -8.103 -7.416 -0.4 -0.174 -0.814 0.122 -0.606 0.984 0.418 1.734 1.295 3.017 2.583 4.561 2.018 2.418 4.804 4.664 7.798 3.648 0.923 -0.378 0.727 -0.242 1.122 -0.764 3.844 -5.085 2.741 -7.351 1.466 -5.686Z" stroke-width="1"></path><path id="vector_40" fill="#000000" d="M48.229 153.792c-0.29 0.005 -0.507 0.199 -0.646 0.342 -1.285 1.333 -1.06 1.556 -3.194 4.793 -0.316 0.228 -0.728 0.45 -1.113 0.388 -0.833 -0.135 -1.592 -1.408 -1.965 -2.16 -0.632 -1.273 -0.579 -1.545 -1.067 -2.307 -0.114 -0.178 -0.379 -0.579 -0.561 -0.686 -0.35 -0.205 -0.808 -0.003 -0.857 0.687 -0.077 1.079 0.103 2.238 1.187 4.052 0.695 1.163 1.686 2.226 3.029 2.402 0.866 0.114 1.694 -0.175 2.242 -0.545 0.162 -0.109 0.319 -0.221 0.472 -0.332 0.245 -0.177 2.352 -3.39 2.775 -4.761 0.216 -0.701 0.431 -1.885 -0.302 -1.874v0.001Z" stroke-width="1"></path><path id="vector_41" fill="#000000" d="M40.746 128.418c-0.358 0.714 1.048 3.727 1.745 5.313 0.061 0.183 0.69 1.387 0.971 3.215 0.281 1.828 0.067 4.441 -0.26 7.028 -0.948 7.475 -3.936 6.844 -7.179 9.452a1.93 1.93 0 0 0 -0.378 0.371c-0.153 0.217 -0.178 0.453 0.04 0.566 0.288 0.152 0.806 0.05 1.162 -0.042 4.95 -1.281 7.568 -3.684 8.358 -10.203 0.668 -5.506 0.823 -8.923 -2.168 -13.593 -0.353 -0.55 -1.277 -1.866 -1.726 -2.161 -0.218 -0.144 -0.456 -0.166 -0.565 0.053v0.001Z" stroke-width="1"></path></g><path id="globe" fill="#64c9cf" d="M154.535 86.856c-9.356 -43.192 -63.387 -58.39 -94.58 -27.082 -20.093 20.166 -23.15 53.735 -1.641 77.947 12.404 13.963 34.046 22.124 55.633 16.54 32.751 -8.881 46.774 -40.279 40.588 -67.405Zm-32.265 62.438c-4.439 2.068 -8.176 2.903 -10.224 3.412 1.008 -1.252 2.211 -9.578 2.433 -11.598 0.374 -4.077 2.612 -4.251 4.743 -6.458 1.386 -1.873 0.929 -3.341 -0.184 -5.609 -3.585 -6.378 -13.016 -1.036 -18.552 -3.318 -1.6 -0.659 -2.712 -2.038 -2.919 -3.006 -1.111 -3.732 10.682 -7.575 3.874 -13.772 -6.928 -6.106 -8.848 -0.691 -20.423 -5.209 -3.281 -1.236 -7.574 -4.192 -15.594 -4.064 -6.713 0.099 -14.021 2.447 -19.628 5.543 -0.996 -10.094 0.641 -19.556 4.362 -27.694 7.994 -17.482 23.528 -28.935 41.208 -31.648 8.687 -1.43 18.362 -0.347 24.596 1.665 -2.767 7.002 -7.534 14.568 -14.95 15.797 -8.415 1.422 -18.939 6.056 -19.568 14.277 -0.132 1.72 -0.07 1.452 -0.103 1.818 -0.36 5.717 -5.809 12.277 2.861 14.452 2.994 0.706 7.433 0.834 10.575 0.721 4.178 -0.125 7.652 -0.697 9.211 0.344 1.6 1.004 1.555 4.508 2.436 8.074 0.624 2.359 1.565 4.119 3.755 5.196 2.581 1.081 6.807 0.99 10.826 -1.107 4.078 -2.146 6.741 -5.142 9.761 -5.911 1.783 -0.465 3.25 0.08 4.814 1.054 1.965 1.224 4.708 4.861 11.505 4.098 3.45 -0.622 4.794 -1.573 6.419 -3.159 -2.339 22.219 -13.336 37.765 -31.234 46.104v-0.002Z" stroke-width="1"></path></g></svg>